<?xml version="1.0" encoding="UTF-8"?>
<svg id="Layer_1" xmlns="http://www.w3.org/2000/svg" version="1.1" viewBox="0 0 1080 1080">
  <!-- Generator: Adobe Illustrator 29.7.0, SVG Export Plug-In . SVG Version: 2.1.1 Build 138)  -->
  <defs>
    <style>
      .st0 {
        fill: #d50014;
      }
    </style>
  </defs>
  <polygon class="st0" points="344 323.6 344 380.4 470.5 380.4 450.7 437.1 344 437.1 344 526 287 526 287 266.5 510.4 266.5 490.4 323.6 344 323.6"/>
  <polygon class="st0" points="508.8 813.4 452 813.4 452 699.3 412 813.4 383.6 813.4 343.6 699.3 343.6 813.4 286.8 813.4 286.8 554 360.5 554 397.8 660.5 435.1 554 508.4 554 508.8 813.4"/>
  <g>
    <path class="st0" d="M746.3,414.9l-3.2,6.1c-13.4,25.5-39.6,41.3-68.3,41.3-42.6,0-77.2-34.7-77.2-77.3s15.8-54.9,41.3-68.3l6.1-3.2-46.9-46.9-3.5,2.4c-38.1,26.4-60.8,69.8-60.8,116,0,77.8,63.3,141.1,141,141.1s89.7-22.7,116-60.8l2.4-3.5-46.9-46.9Z"/>
    <circle class="st0" cx="675.3" cy="384.4" r="51.5"/>
  </g>
  <g>
    <path class="st0" d="M746.3,665.1l-3.2-6.1c-13.4-25.5-39.6-41.3-68.3-41.3-42.6,0-77.2,34.7-77.2,77.3s15.8,54.9,41.3,68.3l6.1,3.2-46.9,46.9-3.5-2.4c-38.1-26.4-60.8-69.8-60.8-116,0-77.8,63.3-141.1,141-141.1s89.7,22.7,116,60.8l2.4,3.5-46.9,46.9Z"/>
    <circle class="st0" cx="675.3" cy="695.6" r="51.5"/>
  </g>
</svg>